G04 DipTrace 3.0.0.1*
G04 BottomPaste.gbr*
%MOIN*%
G04 #@! TF.FileFunction,Paste,Bot*
G04 #@! TF.Part,Single*
%ADD81R,0.090551X0.03937*%
%ADD83R,0.017717X0.033465*%
%ADD91R,0.051181X0.043307*%
%ADD93R,0.043307X0.051181*%
%FSLAX26Y26*%
G04*
G70*
G90*
G75*
G01*
G04 BotPaste*
%LPD*%
D93*
X1195932Y737533D3*
X1270735D3*
X723360Y1185040D3*
X798163D3*
X723229Y1056431D3*
X798032D3*
X1287664Y970998D3*
X1212861D3*
D83*
X997113Y1715748D3*
X1071916D3*
X1034515Y1625197D3*
X775984Y1580840D3*
X850788D3*
X813386Y1490289D3*
X593439Y1580446D3*
X668242D3*
X630840Y1489895D3*
D91*
X749607Y884646D3*
Y809843D3*
D93*
X902625Y928215D3*
X827822D3*
D91*
X666929Y676378D3*
Y751181D3*
X1319554Y567717D3*
Y492914D3*
X1194620Y570735D3*
Y495932D3*
X1194488Y1717061D3*
Y1642257D3*
D93*
X940026Y1487008D3*
X1014830D3*
X1169160Y1258137D3*
X1094357D3*
D91*
X893045Y1716404D3*
Y1791208D3*
X771391Y1716929D3*
Y1791732D3*
X648688Y1715486D3*
Y1790289D3*
D81*
X574935Y1087664D3*
Y1186089D3*
Y1284515D3*
M02*
