G04 DipTrace 3.0.0.1*
G04 BottomMask.gbr*
%MOIN*%
G04 #@! TF.FileFunction,Soldermask,Bot*
G04 #@! TF.Part,Single*
%ADD49C,0.035433*%
%ADD56C,0.057087*%
%ADD60C,0.062992*%
%ADD62R,0.062992X0.062992*%
%ADD64C,0.082677*%
%ADD80R,0.106299X0.055118*%
%ADD82R,0.033465X0.049213*%
%ADD86C,0.074803*%
%ADD88R,0.074803X0.074803*%
%ADD90R,0.066929X0.059055*%
%ADD92R,0.059055X0.066929*%
%FSLAX26Y26*%
G04*
G70*
G90*
G75*
G01*
G04 BotMask*
%LPD*%
D92*
X1195932Y737533D3*
X1270735D3*
X723360Y1185040D3*
X798163D3*
X723229Y1056431D3*
X798032D3*
X1287664Y970998D3*
X1212861D3*
D88*
X458399Y2296982D3*
D86*
Y2196982D3*
Y2096982D3*
Y1996982D3*
Y1896982D3*
Y1796982D3*
Y1696982D3*
Y1596982D3*
D88*
X1358530Y2296982D3*
D86*
Y2196982D3*
Y2096982D3*
Y1996982D3*
Y1896982D3*
Y1796982D3*
Y1696982D3*
Y1596982D3*
D82*
X997113Y1715748D3*
X1071916D3*
X1034515Y1625197D3*
X775984Y1580840D3*
X850788D3*
X813386Y1490289D3*
X593439Y1580446D3*
X668242D3*
X630840Y1489895D3*
D90*
X749607Y884646D3*
Y809843D3*
D92*
X902625Y928215D3*
X827822D3*
D90*
X666929Y676378D3*
Y751181D3*
X1319554Y567717D3*
Y492914D3*
X1194620Y570735D3*
Y495932D3*
X1194488Y1717061D3*
Y1642257D3*
D92*
X940026Y1487008D3*
X1014830D3*
X1169160Y1258137D3*
X1094357D3*
D90*
X893045Y1716404D3*
Y1791208D3*
X771391Y1716929D3*
Y1791732D3*
X648688Y1715486D3*
Y1790289D3*
D80*
X574935Y1087664D3*
Y1186089D3*
Y1284515D3*
D49*
X466667Y1052231D3*
Y1319948D3*
D64*
X534777Y863124D3*
Y763124D3*
Y663124D3*
Y563124D3*
Y463124D3*
D62*
X910368Y1271654D3*
D60*
Y1192914D3*
D56*
X1268557Y1393116D3*
X1210682D3*
X1152808D3*
X1094934D3*
M02*
