M48
INCH
T01C0.0157
T02C0.0315
T03C0.0335
T04C0.0354
T05C0.0409
T06C0.0433
%
T01
X+007936Y+006367
X+007545Y+006358
X+008713Y+006325
X+009163Y+006378
X+010167Y+006308
X+010941Y+006298
X+011253Y+007375
X+011217Y+007987
X+010185Y+007900
X+009618Y+008064
X+009013Y+008646
X+008354Y+008104
X+007496Y+009537
X+008672Y+010155
X+008667Y+010558
X+010239Y+009869
X+010699Y+009911
X+011465Y+009409
X+012878Y+010636
X+013135Y+012576
X+012008Y+014822
X+012883Y+015146
X+010860Y+015514
X+010864Y+015970
X+012223Y+017870
X+012462Y+018613
X+010675Y+019123
X+010175Y+019491
X+009184Y+019839
X+008760Y+020143
X+007949Y+020694
X+007126Y+020684
X+005878Y+020940
X+007024Y+019175
X+007625Y+019101
X+007720Y+018374
X+006625Y+018335
X+007375Y+016650
X+007768Y+016199
X+008346Y+017122
X+005786Y+016689
X+005425Y+015441
X+004688Y+014777
X+005689Y+014362
X+006669Y+014362
X+006656Y+011269
X+006278Y+008500
X+012718Y+008001
X+013197Y+004385
X+011949Y+004404
X+008680Y+021583
X+008723Y+022322
X+011034Y+022738
T02
X+009104Y+012717
X+009104Y+011929
T03
X+012686Y+013931
X+012107Y+013931
X+011528Y+013931
X+010949Y+013931
T04
X+004667Y+010522
X+004667Y+013199
T05
X+005348Y+008631
X+005348Y+007631
X+005348Y+006631
X+005348Y+005631
X+005348Y+004631
T06
X+004584Y+022970
X+004584Y+021970
X+004584Y+020970
X+004584Y+019970
X+004584Y+018970
X+004584Y+017970
X+004584Y+016970
X+004584Y+015970
X+013585Y+015970
X+013585Y+016970
X+013585Y+017970
X+013585Y+018970
X+013585Y+019970
X+013585Y+020970
X+013585Y+021970
X+013585Y+022970
T00
M30
