G04 DipTrace 3.0.0.1*
G04 TopDimension.gbr*
%MOIN*%
G04 #@! TF.FileFunction,Drawing,Top*
G04 #@! TF.Part,Single*
%ADD13C,0.0015*%
%ADD94C,0.006176*%
%FSLAX26Y26*%
G04*
G70*
G90*
G75*
G01*
G04 TopDimension*
%LPD*%
X458399Y2296982D2*
D13*
Y2734908D1*
X1358530Y2296982D2*
Y2734908D1*
X908465Y2715223D2*
X497769D1*
G36*
X458399D2*
X497769Y2723097D1*
Y2707349D1*
X458399Y2715223D1*
G37*
X908465D2*
D13*
X1319160D1*
G36*
X1358530D2*
X1319160Y2707349D1*
Y2723097D1*
X1358530Y2715223D1*
G37*
X458399Y2296982D2*
D13*
Y2788714D1*
X393701Y2362205D2*
Y2788714D1*
Y2769029D2*
X458399D1*
X334646D2*
X354331D1*
G36*
X393701D2*
X354331Y2761155D1*
Y2776903D1*
X393701Y2769029D1*
G37*
X517454D2*
D13*
X497769D1*
G36*
X458399D2*
X497769Y2776903D1*
Y2761155D1*
X458399Y2769029D1*
G37*
X619010D2*
D13*
X458399D1*
X1358530Y2296982D2*
Y2798819D1*
X1429134Y2362205D2*
Y2798819D1*
X1358530Y2779134D2*
X1429134D1*
X1299475D2*
X1319160D1*
G36*
X1358530D2*
X1319160Y2771260D1*
Y2787008D1*
X1358530Y2779134D1*
G37*
X1488189D2*
D13*
X1468504D1*
G36*
X1429134D2*
X1468504Y2787008D1*
Y2771260D1*
X1429134Y2779134D1*
G37*
X1587844D2*
D13*
X1429134D1*
X1179134Y2324410D2*
Y2589895D1*
X1358530Y2296982D2*
Y2589895D1*
X1179134Y2570210D2*
X1358530D1*
X1120079D2*
X1139764D1*
G36*
X1179134D2*
X1139764Y2562336D1*
Y2578084D1*
X1179134Y2570210D1*
G37*
X1417586D2*
D13*
X1397900D1*
G36*
X1358530D2*
X1397900Y2578084D1*
Y2562336D1*
X1358530Y2570210D1*
G37*
X637795Y2324410D2*
D13*
Y2593307D1*
X458399Y2296982D2*
Y2593307D1*
Y2573622D2*
X637795D1*
X399344D2*
X419029D1*
G36*
X458399D2*
X419029Y2565748D1*
Y2581496D1*
X458399Y2573622D1*
G37*
X696851D2*
D13*
X677166D1*
G36*
X637795D2*
X677166Y2581496D1*
Y2565748D1*
X637795Y2573622D1*
G37*
X458399Y2296982D2*
D13*
X225197D1*
X393701Y2362205D2*
X225197D1*
X244882D2*
Y2296982D1*
Y2421260D2*
Y2401575D1*
G36*
Y2362205D2*
X237008Y2401575D1*
X252756D1*
X244882Y2362205D1*
G37*
Y2237927D2*
D13*
Y2257612D1*
G36*
Y2296982D2*
X252756Y2257612D1*
X237008D1*
X244882Y2296982D1*
G37*
Y2520914D2*
D13*
Y2362205D1*
X1358530Y2296982D2*
X1612730D1*
X1429134Y2362205D2*
X1612730D1*
X1593045D2*
Y2296982D1*
Y2421260D2*
Y2401575D1*
G36*
Y2362205D2*
X1585171Y2401575D1*
X1600919D1*
X1593045Y2362205D1*
G37*
Y2237927D2*
D13*
Y2257612D1*
G36*
Y2296982D2*
X1600919Y2257612D1*
X1585171D1*
X1593045Y2296982D1*
G37*
Y2138272D2*
D13*
Y2362205D1*
X865781Y2754229D2*
D94*
X863836Y2748481D1*
X860033Y2744634D1*
X854285Y2742733D1*
X852384D1*
X846636Y2744634D1*
X842833Y2748481D1*
X840888Y2754229D1*
Y2756130D1*
X842833Y2761878D1*
X846636Y2765681D1*
X852384Y2767582D1*
X854285D1*
X860033Y2765681D1*
X863836Y2761878D1*
X865781Y2754229D1*
Y2744634D1*
X863836Y2735083D1*
X860033Y2729335D1*
X854285Y2727434D1*
X850482D1*
X844734Y2729335D1*
X842833Y2733182D1*
X889629Y2767582D2*
X883881Y2765681D1*
X880034Y2759933D1*
X878132Y2750382D1*
Y2744634D1*
X880034Y2735083D1*
X883881Y2729335D1*
X889629Y2727434D1*
X893431D1*
X899179Y2729335D1*
X902982Y2735083D1*
X904927Y2744634D1*
Y2750382D1*
X902982Y2759933D1*
X899179Y2765681D1*
X893431Y2767582D1*
X889629D1*
X902982Y2759933D2*
X880034Y2735083D1*
X928775Y2767582D2*
X923027Y2765681D1*
X919180Y2759933D1*
X917279Y2750382D1*
Y2744634D1*
X919180Y2735083D1*
X923027Y2729335D1*
X928775Y2727434D1*
X932577D1*
X938325Y2729335D1*
X942128Y2735083D1*
X944073Y2744634D1*
Y2750382D1*
X942128Y2759933D1*
X938325Y2765681D1*
X932577Y2767582D1*
X928775D1*
X942128Y2759933D2*
X919180Y2735083D1*
X958326Y2731281D2*
X956425Y2729335D1*
X958326Y2727434D1*
X960271Y2729335D1*
X958326Y2731281D1*
X972623Y2759933D2*
X976470Y2761878D1*
X982218Y2767582D1*
Y2727434D1*
X529981Y2815684D2*
X528079Y2819486D1*
X522331Y2821388D1*
X518529D1*
X512781Y2819486D1*
X508934Y2813738D1*
X507033Y2804188D1*
Y2794637D1*
X508934Y2786988D1*
X512781Y2783141D1*
X518529Y2781240D1*
X520430D1*
X526134Y2783141D1*
X529981Y2786988D1*
X531882Y2792736D1*
Y2794637D1*
X529981Y2800385D1*
X526134Y2804188D1*
X520430Y2806089D1*
X518529D1*
X512781Y2804188D1*
X508934Y2800385D1*
X507033Y2794637D1*
X563379Y2781240D2*
Y2821388D1*
X544233Y2794637D1*
X572929D1*
X587182Y2785087D2*
X585281Y2783141D1*
X587182Y2781240D1*
X589127Y2783141D1*
X587182Y2785087D1*
X609128Y2781240D2*
X628274Y2821388D1*
X601479D1*
X1485417Y2791345D2*
X1504562Y2831493D1*
X1477768D1*
X1528410D2*
X1522662Y2829591D1*
X1518815Y2823843D1*
X1516914Y2814293D1*
Y2808545D1*
X1518815Y2798994D1*
X1522662Y2793246D1*
X1528410Y2791345D1*
X1532212D1*
X1537960Y2793246D1*
X1541763Y2798994D1*
X1543708Y2808545D1*
Y2814293D1*
X1541763Y2823843D1*
X1537960Y2829591D1*
X1532212Y2831493D1*
X1528410D1*
X1541763Y2823843D2*
X1518815Y2798994D1*
X1557961Y2795192D2*
X1556060Y2793246D1*
X1557961Y2791345D1*
X1559907Y2793246D1*
X1557961Y2795192D1*
X1595206Y2825789D2*
X1593305Y2829591D1*
X1587557Y2831493D1*
X1583754D1*
X1578006Y2829591D1*
X1574159Y2823843D1*
X1572258Y2814293D1*
Y2804742D1*
X1574159Y2797093D1*
X1578006Y2793246D1*
X1583754Y2791345D1*
X1585655D1*
X1591359Y2793246D1*
X1595206Y2797093D1*
X1597107Y2802841D1*
Y2804742D1*
X1595206Y2810490D1*
X1591359Y2814293D1*
X1585655Y2816194D1*
X1583754D1*
X1578006Y2814293D1*
X1574159Y2810490D1*
X1572258Y2804742D1*
X1200305Y2614919D2*
X1204151Y2616865D1*
X1209899Y2622569D1*
Y2582421D1*
X1229900D2*
X1249045Y2622569D1*
X1222251D1*
X1286290Y2609216D2*
X1284345Y2603468D1*
X1280542Y2599621D1*
X1274794Y2597720D1*
X1272893D1*
X1267145Y2599621D1*
X1263342Y2603468D1*
X1261397Y2609216D1*
Y2611117D1*
X1263342Y2616865D1*
X1267145Y2620667D1*
X1272893Y2622569D1*
X1274794D1*
X1280542Y2620667D1*
X1284345Y2616865D1*
X1286290Y2609216D1*
Y2599621D1*
X1284345Y2590070D1*
X1280542Y2584322D1*
X1274794Y2582421D1*
X1270992D1*
X1265244Y2584322D1*
X1263342Y2588169D1*
X1300543Y2586268D2*
X1298642Y2584322D1*
X1300543Y2582421D1*
X1302488Y2584322D1*
X1300543Y2586268D1*
X1333985Y2582421D2*
Y2622569D1*
X1314840Y2595818D1*
X1343536D1*
X479570Y2618332D2*
X483416Y2620277D1*
X489164Y2625981D1*
Y2585833D1*
X509165D2*
X528310Y2625981D1*
X501516D1*
X565555Y2612628D2*
X563610Y2606880D1*
X559807Y2603033D1*
X554059Y2601132D1*
X552158D1*
X546410Y2603033D1*
X542607Y2606880D1*
X540662Y2612628D1*
Y2614529D1*
X542607Y2620277D1*
X546410Y2624080D1*
X552158Y2625981D1*
X554059D1*
X559807Y2624080D1*
X563610Y2620277D1*
X565555Y2612628D1*
Y2603033D1*
X563610Y2593482D1*
X559807Y2587734D1*
X554059Y2585833D1*
X550257D1*
X544509Y2587734D1*
X542607Y2591581D1*
X579808Y2589680D2*
X577907Y2587734D1*
X579808Y2585833D1*
X581753Y2587734D1*
X579808Y2589680D1*
X613250Y2585833D2*
Y2625981D1*
X594105Y2599230D1*
X622801D1*
X198227Y2433786D2*
X194425Y2431885D1*
X192524Y2426137D1*
Y2422335D1*
X194425Y2416587D1*
X200173Y2412740D1*
X209723Y2410839D1*
X219274D1*
X226923Y2412740D1*
X230770Y2416587D1*
X232671Y2422335D1*
Y2424236D1*
X230770Y2429940D1*
X226923Y2433786D1*
X221175Y2435688D1*
X219274D1*
X213526Y2433786D1*
X209723Y2429940D1*
X207822Y2424236D1*
Y2422335D1*
X209723Y2416587D1*
X213526Y2412740D1*
X219274Y2410839D1*
X192524Y2470987D2*
Y2451886D1*
X209723Y2449985D1*
X207822Y2451886D1*
X205877Y2457634D1*
Y2463338D1*
X207822Y2469086D1*
X211625Y2472933D1*
X217373Y2474834D1*
X221175D1*
X226923Y2472933D1*
X230770Y2469086D1*
X232671Y2463338D1*
Y2457634D1*
X230770Y2451886D1*
X228825Y2449985D1*
X225022Y2448039D1*
X228825Y2489086D2*
X230770Y2487185D1*
X232671Y2489086D1*
X230770Y2491032D1*
X228825Y2489086D1*
X202074Y2505329D2*
X200173D1*
X196326Y2507230D1*
X194425Y2509131D1*
X192524Y2512978D1*
Y2520627D1*
X194425Y2524430D1*
X196326Y2526331D1*
X200173Y2528277D1*
X203975D1*
X207822Y2526331D1*
X213526Y2522529D1*
X232671Y2503383D1*
Y2530178D1*
X1639700Y2225400D2*
X1643502Y2227302D1*
X1645403Y2233050D1*
Y2236852D1*
X1643502Y2242600D1*
X1637754Y2246447D1*
X1628203Y2248348D1*
X1618653D1*
X1611004Y2246447D1*
X1607157Y2242600D1*
X1605256Y2236852D1*
Y2234951D1*
X1607157Y2229247D1*
X1611004Y2225400D1*
X1616752Y2223499D1*
X1618653D1*
X1624401Y2225400D1*
X1628203Y2229247D1*
X1630105Y2234951D1*
Y2236852D1*
X1628203Y2242600D1*
X1624401Y2246447D1*
X1618653Y2248348D1*
X1645403Y2188200D2*
Y2207301D1*
X1628203Y2209202D1*
X1630105Y2207301D1*
X1632050Y2201553D1*
Y2195849D1*
X1630105Y2190101D1*
X1626302Y2186254D1*
X1620554Y2184353D1*
X1616752D1*
X1611004Y2186254D1*
X1607157Y2190101D1*
X1605256Y2195849D1*
Y2201553D1*
X1607157Y2207301D1*
X1609102Y2209202D1*
X1612905Y2211148D1*
X1609102Y2170100D2*
X1607157Y2172002D1*
X1605256Y2170100D1*
X1607157Y2168155D1*
X1609102Y2170100D1*
X1635853Y2153858D2*
X1637754D1*
X1641601Y2151957D1*
X1643502Y2150055D1*
X1645403Y2146209D1*
Y2138559D1*
X1643502Y2134757D1*
X1641601Y2132855D1*
X1637754Y2130910D1*
X1633952D1*
X1630105Y2132855D1*
X1624401Y2136658D1*
X1605256Y2155803D1*
Y2129009D1*
M02*
