G04 DipTrace 3.0.0.1*
G04 TopMask.gbr*
%MOIN*%
G04 #@! TF.FileFunction,Soldermask,Top*
G04 #@! TF.Part,Single*
%ADD49C,0.035433*%
%ADD56C,0.057087*%
%ADD58R,0.023622X0.07874*%
%ADD60C,0.062992*%
%ADD62R,0.062992X0.062992*%
%ADD64C,0.082677*%
%ADD66R,0.051181X0.031496*%
%ADD68R,0.055118X0.082677*%
%ADD70R,0.070866X0.082677*%
%ADD72R,0.090551X0.086614*%
%ADD74R,0.023622X0.061024*%
%ADD76R,0.035827X0.057874*%
%ADD78R,0.057874X0.035827*%
%ADD84R,0.055118X0.047244*%
%ADD86C,0.074803*%
%ADD88R,0.074803X0.074803*%
%ADD90R,0.066929X0.059055*%
%FSLAX26Y26*%
G04*
G70*
G90*
G75*
G01*
G04 TopMask*
%LPD*%
D90*
X771523Y808399D3*
Y733596D3*
X901444Y734646D3*
Y809449D3*
X1194882Y571129D3*
Y496326D3*
X1318242Y567323D3*
Y492520D3*
D88*
X458399Y2296982D3*
D86*
Y2196982D3*
Y2096982D3*
Y1996982D3*
Y1896982D3*
Y1796982D3*
Y1696982D3*
Y1596982D3*
D88*
X1358530Y2296982D3*
D86*
Y2196982D3*
Y2096982D3*
Y1996982D3*
Y1896982D3*
Y1796982D3*
Y1696982D3*
Y1596982D3*
D84*
X545819Y2224771D3*
Y2146030D3*
X967848Y1630840D3*
Y1552100D3*
D49*
X466667Y1052231D3*
Y1319948D3*
D78*
X1179134Y2324410D3*
Y2274410D3*
Y2224410D3*
Y2174410D3*
Y2124410D3*
Y2074410D3*
Y2024410D3*
Y1974410D3*
Y1924410D3*
Y1874410D3*
Y1824410D3*
D76*
X1114173Y1775591D3*
X1064173D3*
X1014173D3*
X964173D3*
X914173D3*
X864173D3*
X814173D3*
X764173D3*
X714173D3*
X664173D3*
D78*
X637795Y1874410D3*
Y1924410D3*
Y1974410D3*
Y2024410D3*
Y2074410D3*
Y2124410D3*
Y2174410D3*
Y2224410D3*
Y2274410D3*
Y2324410D3*
D74*
X957481Y569160D3*
X931890D3*
X906299D3*
X880709D3*
X855118D3*
D72*
X1028347Y556365D3*
X784252D3*
D70*
X1067717Y463845D3*
X744882D3*
D68*
X939764D3*
X872835D3*
D66*
X665355Y964567D3*
Y1001969D3*
Y1039370D3*
X559055D3*
Y964567D3*
D64*
X534777Y863124D3*
Y763124D3*
Y663124D3*
Y563124D3*
Y463124D3*
D62*
X910368Y1271654D3*
D60*
Y1192914D3*
D58*
X1325591Y1154462D3*
X1300000D3*
X1274410D3*
X1248819D3*
X1223229D3*
X1197638D3*
X1172047D3*
X1146457D3*
X1120866D3*
X1095276D3*
X1069685D3*
X1044095D3*
X1018504D3*
X992914D3*
Y870990D3*
X1018504Y870998D3*
X1044095D3*
X1069685D3*
X1095276D3*
X1120866D3*
X1146457D3*
X1172047D3*
X1197638D3*
X1223229D3*
X1248819D3*
X1274410D3*
X1300000D3*
X1325591D3*
D56*
X1268557Y1393116D3*
X1210682D3*
X1152808D3*
X1094934D3*
M02*
