G04 DipTrace 3.0.0.1*
G04 TopPaste.gbr*
%MOIN*%
G04 #@! TF.FileFunction,Paste,Top*
G04 #@! TF.Part,Single*
%ADD59R,0.007874X0.062992*%
%ADD67R,0.035433X0.015748*%
%ADD69R,0.03937X0.066929*%
%ADD71R,0.055118X0.066929*%
%ADD73R,0.074803X0.070866*%
%ADD75R,0.007874X0.045276*%
%ADD77R,0.020079X0.042126*%
%ADD79R,0.042126X0.020079*%
%ADD85R,0.03937X0.031496*%
%ADD91R,0.051181X0.043307*%
%FSLAX26Y26*%
G04*
G70*
G90*
G75*
G01*
G04 TopPaste*
%LPD*%
D91*
X771523Y808399D3*
Y733596D3*
X901444Y734646D3*
Y809449D3*
X1194882Y571129D3*
Y496326D3*
X1318242Y567323D3*
Y492520D3*
D85*
X545819Y2224771D3*
Y2146030D3*
X967848Y1630840D3*
Y1552100D3*
D79*
X1179134Y2324410D3*
Y2274410D3*
Y2224410D3*
Y2174410D3*
Y2124410D3*
Y2074410D3*
Y2024410D3*
Y1974410D3*
Y1924410D3*
Y1874410D3*
Y1824410D3*
D77*
X1114173Y1775591D3*
X1064173D3*
X1014173D3*
X964173D3*
X914173D3*
X864173D3*
X814173D3*
X764173D3*
X714173D3*
X664173D3*
D79*
X637795Y1874410D3*
Y1924410D3*
Y1974410D3*
Y2024410D3*
Y2074410D3*
Y2124410D3*
Y2174410D3*
Y2224410D3*
Y2274410D3*
Y2324410D3*
D75*
X957481Y569160D3*
X931890D3*
X906299D3*
X880709D3*
X855118D3*
D73*
X1028347Y556365D3*
X784252D3*
D71*
X1067717Y463845D3*
X744882D3*
D69*
X939764D3*
X872835D3*
D67*
X665355Y964567D3*
Y1001969D3*
Y1039370D3*
X559055D3*
Y964567D3*
D59*
X1325591Y1154462D3*
X1300000D3*
X1274410D3*
X1248819D3*
X1223229D3*
X1197638D3*
X1172047D3*
X1146457D3*
X1120866D3*
X1095276D3*
X1069685D3*
X1044095D3*
X1018504D3*
X992914D3*
Y870990D3*
X1018504Y870998D3*
X1044095D3*
X1069685D3*
X1095276D3*
X1120866D3*
X1146457D3*
X1172047D3*
X1197638D3*
X1223229D3*
X1248819D3*
X1274410D3*
X1300000D3*
X1325591D3*
M02*
